<?xml version="1.0" encoding="UTF-8" standalone="no"?>
<svg
   height="1792"
   viewBox="0 0 1792 1792"
   width="1792"
   version="1.1"
   id="svg4"
   sodipodi:docname="irregular.svg"
   inkscape:version="1.1.1 (3bf5ae0d25, 2021-09-20)"
   xmlns:inkscape="http://www.inkscape.org/namespaces/inkscape"
   xmlns:sodipodi="http://sodipodi.sourceforge.net/DTD/sodipodi-0.dtd"
   xmlns="http://www.w3.org/2000/svg"
   xmlns:svg="http://www.w3.org/2000/svg">
  <defs
     id="defs8" />
  <sodipodi:namedview
     id="namedview6"
     pagecolor="#ffffff"
     bordercolor="#666666"
     borderopacity="1.0"
     inkscape:pageshadow="2"
     inkscape:pageopacity="0.0"
     inkscape:pagecheckerboard="0"
     showgrid="false"
     inkscape:zoom="0.48716518"
     inkscape:cx="1354.7766"
     inkscape:cy="897.02635"
     inkscape:window-width="2560"
     inkscape:window-height="1284"
     inkscape:window-x="-11"
     inkscape:window-y="-11"
     inkscape:window-maximized="1"
     inkscape:current-layer="svg4" />
  <path
     d="m 768,640 c 0,35.33333 -12.5,65.5 -37.5,90.5 -25,25 -55.16667,37.5 -90.5,37.5 -35.33333,0 -65.5,-12.5 -90.5,-37.5 -25,-25 -37.5,-55.16667 -37.5,-90.5 0,-35.33333 12.5,-65.5 37.5,-90.5 25,-25 55.16667,-37.5 90.5,-37.5 35.33333,0 65.5,12.5 90.5,37.5 25,25 37.5,55.16667 37.5,90.5 z m 512,0 c 0,35.33333 -12.5,65.5 -37.5,90.5 -25,25 -55.1667,37.5 -90.5,37.5 -35.3333,0 -65.5,-12.5 -90.5,-37.5 -25,-25 -37.5,-55.16667 -37.5,-90.5 0,-35.33333 12.5,-65.5 37.5,-90.5 25,-25 55.1667,-37.5 90.5,-37.5 35.3333,0 65.5,12.5 90.5,37.5 25,25 37.5,55.16667 37.5,90.5 z m 256,256 c 0,-86.66667 -17,-169.5 -51,-248.5 -34,-79 -79.5,-147 -136.5,-204 -57,-57 -125,-102.5 -204,-136.5 -79,-34 -161.83333,-51 -248.5,-51 -86.66667,0 -169.5,17 -248.5,51 -79,34 -147,79.5 -204,136.5 -57,57 -102.5,125 -136.5,204 -34,79 -51,161.83333 -51,248.5 0,86.66667 17,169.5 51,248.5 34,79 79.5,147 136.5,204 57,57 125,102.5 204,136.5 79,34 161.83333,51 248.5,51 86.66667,0 169.5,-17 248.5,-51 79,-34 147,-79.5 204,-136.5 57,-57 102.5,-125 136.5,-204 34,-79 51,-161.83333 51,-248.5 z m 128,0 c 0,139.3333 -34.3333,267.8333 -103,385.5 -68.6667,117.6667 -161.8333,210.8333 -279.5,279.5 -117.6667,68.6667 -246.1667,103 -385.5,103 -139.33333,0 -267.83333,-34.3333 -385.5,-103 C 392.83333,1492.3333 299.66667,1399.1667 231,1281.5 162.33333,1163.8333 128,1035.3333 128,896 128,756.66667 162.33333,628.16667 231,510.5 299.66667,392.83333 392.83333,299.66667 510.5,231 628.16667,162.33333 756.66667,128 896,128 c 139.3333,0 267.8333,34.33333 385.5,103 117.6667,68.66667 210.8333,161.83333 279.5,279.5 68.6667,117.66667 103,246.16667 103,385.5 z"
     id="path2"
     sodipodi:nodetypes="ssssssssssssssssssssssssssssssssssssssssssssssss" />
  <path
     d="m 1262,1260.8 c -24.6667,-80.6667 -70.6667,-145.6667 -138,-195 -67.3334,-49.3333 -143.33335,-74 -228.00002,-74 -84.66667,0 -160.66667,24.6667 -228,74 -67.33336,49.3333 -113.33334,114.3333 -138.00004,195 -5.3333,16.6667 -4,32.8333 4,48.5 8,15.6667 20.6667,26.1667 38,31.5 16.66669,5.3333 32.83337,4 48.50004,-4 15.66667,-8 26.16667,-20.6667 31.5,-38 16.66667,-53.3333 47.5,-96.5 92.5,-129.5 45,-33 95.5,-49.5 151.5,-49.5 56,0 106.50002,16.5 151.50002,49.5 45,33 75.8333,76.1667 92.5,129.5 5.3333,17.3333 16,30 32,38 16,8 32.3333,9.3333 49,4 16.6666,-5.3333 29,-15.8333 37,-31.5 8,-15.6667 9.3333,-31.8333 4,-48.5 z"
     id="path792"
     sodipodi:nodetypes="cssscscscssscsssc" />
</svg>
