<?xml version="1.0" encoding="UTF-8" standalone="no"?>
<svg
   version="1.1"
   id="svg2"
   x="0px"
   y="0px"
   viewBox="1582.8676 -62.4635 25 25"
   enable-background="new 1582.8676 -62.4635 987.1324 1679.4772"
   xml:space="preserve"
   sodipodi:docname="feminine.svg"
   width="25"
   height="25"
   inkscape:version="1.1.1 (3bf5ae0d25, 2021-09-20)"
   xmlns:inkscape="http://www.inkscape.org/namespaces/inkscape"
   xmlns:sodipodi="http://sodipodi.sourceforge.net/DTD/sodipodi-0.dtd"
   xmlns="http://www.w3.org/2000/svg"
   xmlns:svg="http://www.w3.org/2000/svg"><defs
   id="defs6" /><sodipodi:namedview
   id="namedview4"
   pagecolor="#ffffff"
   bordercolor="#666666"
   borderopacity="1.0"
   inkscape:pageshadow="2"
   inkscape:pageopacity="0.0"
   inkscape:pagecheckerboard="0"
   showgrid="false"
   height="1679.4772px"
   inkscape:zoom="12.99452"
   inkscape:cx="20.046912"
   inkscape:cy="23.048177"
   inkscape:window-width="1522"
   inkscape:window-height="871"
   inkscape:window-x="389"
   inkscape:window-y="1071"
   inkscape:window-maximized="1"
   inkscape:current-layer="svg2"
   width="25px" />
<path
   id="path7"
   d="m 1594.6547,-46.400602 c 1.4301,0.904851 3.0315,1.333576 4.8039,1.274986 2.298,-0.07222 4.2792,-0.937054 5.8878,-2.560675 1.0519,-1.061815 1.7953,-2.351468 2.2078,-3.835307 0.4291,-1.523059 0.4275,-3.06089 -0.016,-4.579883 -0.4263,-1.491111 -1.176,-2.779397 -2.2379,-3.831361 -1.0675,-1.057531 -2.3627,-1.806431 -3.8465,-2.218927 -1.5118,-0.417957 -3.0497,-0.416381 -4.5743,0.02132 l -0.012,5.3e-5 c -1.491,0.437544 -2.7737,1.192865 -3.8257,2.25468 -1.0797,1.089905 -1.8341,2.413165 -2.2465,3.941737 l -0.01,0.0168 c -0.3955,1.545271 -0.3716,3.07181 0.077,4.54045 l 0.01,0.01675 c 0.2555,0.820853 0.5776,1.540736 0.9664,2.170836 l -1.7366,1.752837 -4.4158,-4.374835 -2.7885,2.814652 4.4158,4.374836 -4.1745,4.213554 2.8147,2.78854 4.1744,-4.213556 4.4046,4.363705 2.7886,-2.814652 -4.4046,-4.363704 1.7366,-1.752837 z m 7.8739,-10.756809 c 0.5786,0.573292 0.9788,1.259262 1.2345,2.113664 l 0.01,0.01675 c 0.2554,0.809667 0.2648,1.609298 0.034,2.438009 -0.242,0.862318 -0.647,1.574407 -1.2314,2.164303 -0.9406,0.949454 -2.0401,1.407538 -3.3766,1.419359 -1.3197,0.0061 -2.4234,-0.441668 -3.3729,-1.382312 -0.9382,-0.929514 -1.4075,-2.028975 -1.4137,-3.359873 -6e-4,-1.325332 0.4528,-2.434688 1.3934,-3.384142 0.5845,-0.589898 1.2927,-1.001424 2.1528,-1.251485 0.8265,-0.238722 1.6262,-0.236856 2.4381,-1.78e-4 0.868,0.258786 1.5633,0.658178 2.1364,1.225904 z"
   style="stroke-width:0.0184166" />
</svg>
